<svg xmlns="http://www.w3.org/2000/svg" viewBox="0 0 320 96" width="320" height="96" role="img" aria-labelledby="continuous-widget-title continuous-widget-desc" data-pipeline="pps-native-signal-svg.v1">
  <title id="continuous-widget-title">Smooth Linear Approach source preview</title>
  <desc id="continuous-widget-desc">Compact native-vector interface preview of a native-vector min-max waveform generated from continuous pps-kit gaussian noise and the reciprocal-distance gain of a linear approach.</desc>
  <style data-layer="theme-palette">:root{--pps-svg-background:#f4f5f1;--pps-svg-surface:#ffffff;--pps-svg-surface-2:#f8faf7;--pps-svg-text:#202621;--pps-svg-muted:#68746c;--pps-svg-line:#d9dfd6;--pps-svg-line-strong:#b8c5bb;--pps-svg-panel:#141f1a;--pps-svg-panel-soft:#1b2821;--pps-svg-panel-line:#2e4038;--pps-svg-widget-plot:#eef3ef;--pps-svg-widget-lane:#f8faf7;--pps-svg-widget-grid:#c9d5cd;--pps-svg-primary:#246b55;--pps-svg-primary-hover:#1d5846;--pps-svg-cyan:#2a8f84;--pps-svg-accent:#d8892f;--pps-svg-orange:#b75b2f;--pps-svg-baseline:#4b5fa8;--pps-svg-white-noise:#d8dde2;--pps-svg-chip-surface:#eef7f3;--pps-svg-chip-line:#b8d9cf;--pps-svg-plot-border:#9aaba0;--pps-svg-plot-label:#5f7469;--pps-svg-plot-label-strong:#355447;--pps-svg-silenced:#6d8176;--pps-svg-soft-mark:#8da399;--pps-svg-stimulus-span:#496d5d;--pps-svg-tactile-text:#8a4020;--pps-svg-footer:#526c60;}@media (prefers-color-scheme:dark){:root{--pps-svg-background:#151a17;--pps-svg-surface:#202723;--pps-svg-surface-2:#252e29;--pps-svg-text:#f1f5f2;--pps-svg-muted:#bdc9c1;--pps-svg-line:#3d4b43;--pps-svg-line-strong:#607066;--pps-svg-panel:#111915;--pps-svg-panel-soft:#1b2821;--pps-svg-panel-line:#33483e;--pps-svg-widget-plot:#171e1a;--pps-svg-widget-lane:#202a24;--pps-svg-widget-grid:#3b4b42;--pps-svg-primary:#54b58f;--pps-svg-primary-hover:#6bc7a2;--pps-svg-cyan:#69cfc3;--pps-svg-accent:#f2b35c;--pps-svg-orange:#e58c59;--pps-svg-baseline:#899af0;--pps-svg-white-noise:#d8dde2;--pps-svg-chip-surface:#1f3b31;--pps-svg-chip-line:#3f725e;--pps-svg-plot-border:#52645a;--pps-svg-plot-label:#91a99d;--pps-svg-plot-label-strong:#c0d2c8;--pps-svg-silenced:#8ca095;--pps-svg-soft-mark:#8ca095;--pps-svg-stimulus-span:#8ab9a3;--pps-svg-tactile-text:#f0a071;--pps-svg-footer:#91a99d;}}</style>
  <metadata id="continuous-widget-metadata">{"approach":{"end_radius_m":0.2,"end_s":3.37,"gain":"reciprocal_distance_1_over_r","start_radius_m":1.4,"start_s":0.3,"trajectory":"linear_distance"},"asset_role":"source_mode_control_preview","composition":"compact_transparent_widget","duration_s":3.85,"generator":"tools/generate_noise_mode_svgs.py","mode":"continuous","noise_distribution":"Gaussian","sample_rate_hz":44100,"sample_reduction":"per-column minimum and maximum","schema":"pps-native-signal-svg.v1","seed":20250604,"source_profile":"continuous_noise","theme_behavior":"light/dark palette follows the embedding element color-scheme","waveform_bins":256}</metadata>
  <defs>
    <linearGradient id="continuous-widget-wave-fill" x1="0%" y1="0%" x2="100%" y2="0%">
      <stop offset="0%" stop-color="var(--pps-svg-primary, #246b55)" stop-opacity="1" />
      <stop offset="100%" stop-color="var(--pps-svg-cyan, #2a8f84)" stop-opacity="1" />
    </linearGradient>
    <linearGradient id="continuous-widget-gain-fill" x1="0%" y1="0%" x2="100%" y2="0%">
      <stop offset="0%" stop-color="var(--pps-svg-baseline, #4b5fa8)" stop-opacity="0.05" />
      <stop offset="100%" stop-color="var(--pps-svg-accent, #d8892f)" stop-opacity="0.22" />
    </linearGradient>
    <clipPath id="continuous-widget-clip">
      <rect x="4" y="4" width="312" height="68" />
    </clipPath>
  </defs>
  <rect width="320" height="96" fill="none" data-layer="transparent-background" />
  <rect x="4" y="4" width="312" height="68" rx="5" fill="var(--pps-svg-widget-plot, #eef3ef)" stroke="var(--pps-svg-plot-border, #9aaba0)" data-layer="plot-background" />
  <g clip-path="url(#continuous-widget-clip)" data-layer="plot">
    <line x1="4" y1="4" x2="4" y2="72" stroke="var(--pps-svg-widget-grid, #c9d5cd)" stroke-width="0.6" data-layer="grid" />
    <line x1="43" y1="4" x2="43" y2="72" stroke="var(--pps-svg-widget-grid, #c9d5cd)" stroke-width="0.6" data-layer="grid" />
    <line x1="82" y1="4" x2="82" y2="72" stroke="var(--pps-svg-widget-grid, #c9d5cd)" stroke-width="0.6" data-layer="grid" />
    <line x1="121" y1="4" x2="121" y2="72" stroke="var(--pps-svg-widget-grid, #c9d5cd)" stroke-width="0.6" data-layer="grid" />
    <line x1="160" y1="4" x2="160" y2="72" stroke="var(--pps-svg-widget-grid, #c9d5cd)" stroke-width="0.6" data-layer="grid" />
    <line x1="199" y1="4" x2="199" y2="72" stroke="var(--pps-svg-widget-grid, #c9d5cd)" stroke-width="0.6" data-layer="grid" />
    <line x1="238" y1="4" x2="238" y2="72" stroke="var(--pps-svg-widget-grid, #c9d5cd)" stroke-width="0.6" data-layer="grid" />
    <line x1="277" y1="4" x2="277" y2="72" stroke="var(--pps-svg-widget-grid, #c9d5cd)" stroke-width="0.6" data-layer="grid" />
    <line x1="316" y1="4" x2="316" y2="72" stroke="var(--pps-svg-widget-grid, #c9d5cd)" stroke-width="0.6" data-layer="grid" />
    <line x1="4" y1="4" x2="316" y2="4" stroke="var(--pps-svg-widget-grid, #c9d5cd)" stroke-width="0.5" data-layer="grid" />
    <line x1="4" y1="38" x2="316" y2="38" stroke="var(--pps-svg-widget-grid, #c9d5cd)" stroke-width="0.8" data-layer="grid" />
    <line x1="4" y1="72" x2="316" y2="72" stroke="var(--pps-svg-widget-grid, #c9d5cd)" stroke-width="0.5" data-layer="grid" />
    <path d="M 4,33.726 L 7.284,33.726 L 10.568,33.726 L 13.853,33.726 L 17.137,33.726 L 20.421,33.726 L 23.705,33.726 L 26.989,33.726 L 30.274,33.697 L 33.558,33.647 L 36.842,33.596 L 40.126,33.544 L 43.411,33.491 L 46.695,33.437 L 49.979,33.381 L 53.263,33.324 L 56.547,33.265 L 59.832,33.205 L 63.116,33.143 L 66.4,33.08 L 69.684,33.015 L 72.968,32.949 L 76.253,32.88 L 79.537,32.81 L 82.821,32.737 L 86.105,32.663 L 89.389,32.587 L 92.674,32.508 L 95.958,32.427 L 99.242,32.343 L 102.526,32.257 L 105.811,32.169 L 109.095,32.077 L 112.379,31.983 L 115.663,31.886 L 118.947,31.785 L 122.232,31.681 L 125.516,31.574 L 128.8,31.462 L 132.084,31.347 L 135.368,31.228 L 138.653,31.104 L 141.937,30.976 L 145.221,30.843 L 148.505,30.705 L 151.789,30.561 L 155.074,30.412 L 158.358,30.256 L 161.642,30.094 L 164.926,29.925 L 168.211,29.749 L 171.495,29.565 L 174.779,29.372 L 178.063,29.17 L 181.347,28.959 L 184.632,28.737 L 187.916,28.504 L 191.2,28.259 L 194.484,28.002 L 197.768,27.73 L 201.053,27.443 L 204.337,27.139 L 207.621,26.818 L 210.905,26.477 L 214.189,26.114 L 217.474,25.728 L 220.758,25.316 L 224.042,24.875 L 227.326,24.403 L 230.611,23.895 L 233.895,23.348 L 237.179,22.757 L 240.463,22.116 L 243.747,21.419 L 247.032,20.658 L 250.316,19.823 L 253.6,18.904 L 256.884,17.887 L 260.168,16.756 L 263.453,15.491 L 266.737,14.064 L 270.021,12.445 L 273.305,10.591 L 276.589,8.447 L 279.874,8.08 L 283.158,8.08 L 286.442,8.08 L 289.726,8.08 L 293.011,8.08 L 296.295,8.08 L 299.579,8.08 L 302.863,8.08 L 306.147,8.08 L 309.432,8.08 L 312.716,8.08 L 316,8.08 L 316,67.92 L 312.716,67.92 L 309.432,67.92 L 306.147,67.92 L 302.863,67.92 L 299.579,67.92 L 296.295,67.92 L 293.011,67.92 L 289.726,67.92 L 286.442,67.92 L 283.158,67.92 L 279.874,67.92 L 276.589,67.553 L 273.305,65.409 L 270.021,63.555 L 266.737,61.936 L 263.453,60.509 L 260.168,59.244 L 256.884,58.113 L 253.6,57.096 L 250.316,56.177 L 247.032,55.342 L 243.747,54.581 L 240.463,53.884 L 237.179,53.243 L 233.895,52.652 L 230.611,52.105 L 227.326,51.597 L 224.042,51.125 L 220.758,50.684 L 217.474,50.272 L 214.189,49.886 L 210.905,49.523 L 207.621,49.182 L 204.337,48.861 L 201.053,48.557 L 197.768,48.27 L 194.484,47.998 L 191.2,47.741 L 187.916,47.496 L 184.632,47.263 L 181.347,47.041 L 178.063,46.83 L 174.779,46.628 L 171.495,46.435 L 168.211,46.251 L 164.926,46.075 L 161.642,45.906 L 158.358,45.744 L 155.074,45.588 L 151.789,45.439 L 148.505,45.295 L 145.221,45.157 L 141.937,45.024 L 138.653,44.896 L 135.368,44.772 L 132.084,44.653 L 128.8,44.538 L 125.516,44.426 L 122.232,44.319 L 118.947,44.215 L 115.663,44.114 L 112.379,44.017 L 109.095,43.923 L 105.811,43.831 L 102.526,43.743 L 99.242,43.657 L 95.958,43.573 L 92.674,43.492 L 89.389,43.413 L 86.105,43.337 L 82.821,43.263 L 79.537,43.19 L 76.253,43.12 L 72.968,43.051 L 69.684,42.985 L 66.4,42.92 L 63.116,42.857 L 59.832,42.795 L 56.547,42.735 L 53.263,42.676 L 49.979,42.619 L 46.695,42.563 L 43.411,42.509 L 40.126,42.456 L 36.842,42.404 L 33.558,42.353 L 30.274,42.303 L 26.989,42.274 L 23.705,42.274 L 20.421,42.274 L 17.137,42.274 L 13.853,42.274 L 10.568,42.274 L 7.284,42.274 L 4,42.274 Z" fill="url(#continuous-widget-gain-fill)" data-layer="approach-envelope-fill" />
    <path d="M 4,34.689 L 5.224,34.89 L 6.447,35.025 L 7.671,34.541 L 8.894,34.377 L 10.118,34.42 L 11.341,34.178 L 12.565,34.316 L 13.788,34.586 L 15.012,34.407 L 16.235,34.812 L 17.459,34.595 L 18.682,34.833 L 19.906,34.694 L 21.129,34.445 L 22.353,33.941 L 23.576,34.367 L 24.8,34.487 L 26.024,34.094 L 27.247,34.778 L 28.471,34.878 L 29.694,34.754 L 30.918,34.714 L 32.141,34.263 L 33.365,34.312 L 34.588,34.389 L 35.812,34.478 L 37.035,33.913 L 38.259,34.085 L 39.482,33.683 L 40.706,34.8 L 41.929,33.937 L 43.153,34.201 L 44.376,34.431 L 45.6,34.089 L 46.824,33.898 L 48.047,34.334 L 49.271,34.187 L 50.494,34.09 L 51.718,34.123 L 52.941,33.956 L 54.165,34.077 L 55.388,34.513 L 56.612,34.212 L 57.835,34.064 L 59.059,34.19 L 60.282,33.697 L 61.506,33.599 L 62.729,34.183 L 63.953,34.41 L 65.176,33.169 L 66.4,34.364 L 67.624,33.509 L 68.847,34.413 L 70.071,34.065 L 71.294,33.948 L 72.518,32.566 L 73.741,34.111 L 74.965,33.915 L 76.188,33.568 L 77.412,33.78 L 78.635,32.901 L 79.859,33.557 L 81.082,34.286 L 82.306,33.668 L 83.529,33.558 L 84.753,33.609 L 85.976,33.206 L 87.2,34.207 L 88.424,34.104 L 89.647,33.611 L 90.871,33.345 L 92.094,33.772 L 93.318,33.232 L 94.541,33.497 L 95.765,33.406 L 96.988,32.738 L 98.212,33.063 L 99.435,33.772 L 100.659,33.925 L 101.882,33.896 L 103.106,33.086 L 104.329,33.607 L 105.553,32.402 L 106.776,33.242 L 108,32.009 L 109.224,32.32 L 110.447,32.254 L 111.671,32.521 L 112.894,33.408 L 114.118,33.831 L 115.341,32.514 L 116.565,33.407 L 117.788,33.172 L 119.012,33.03 L 120.235,32.006 L 121.459,31.817 L 122.682,33.328 L 123.906,31.626 L 125.129,32.897 L 126.353,31.382 L 127.576,32.635 L 128.8,33.031 L 130.024,33.477 L 131.247,32.682 L 132.471,32.966 L 133.694,32.204 L 134.918,32.078 L 136.141,32.084 L 137.365,31.736 L 138.588,31.764 L 139.812,31.122 L 141.035,31.903 L 142.259,32.89 L 143.482,33.27 L 144.706,32.352 L 145.929,31.172 L 147.153,32.446 L 148.376,31.655 L 149.6,32.58 L 150.824,31.092 L 152.047,31.607 L 153.271,31.194 L 154.494,32.397 L 155.718,31.617 L 156.941,30.775 L 158.165,31.988 L 159.388,30.638 L 160.612,32.016 L 161.835,32.189 L 163.059,31.317 L 164.282,30.545 L 165.506,28.196 L 166.729,31.923 L 167.953,31.901 L 169.176,31.288 L 170.4,31.831 L 171.624,30.687 L 172.847,31.29 L 174.071,29.918 L 175.294,32.113 L 176.518,31.803 L 177.741,31.067 L 178.965,30.58 L 180.188,29.528 L 181.412,30.625 L 182.635,30.48 L 183.859,32.15 L 185.082,30.687 L 186.306,30.595 L 187.529,29.515 L 188.753,29.778 L 189.976,30.326 L 191.2,30.205 L 192.424,28.799 L 193.647,31.405 L 194.871,26.887 L 196.094,29.915 L 197.318,29.035 L 198.541,29.994 L 199.765,30.454 L 200.988,27.48 L 202.212,30.202 L 203.435,29.429 L 204.659,29.892 L 205.882,30.519 L 207.106,27.761 L 208.329,30.029 L 209.553,28.944 L 210.776,29.49 L 212,27.45 L 213.224,28.354 L 214.447,28.876 L 215.671,29.233 L 216.894,28.537 L 218.118,27.321 L 219.341,29.31 L 220.565,26.22 L 221.788,29.165 L 223.012,28.333 L 224.235,26.013 L 225.459,26.697 L 226.682,27.736 L 227.906,25.216 L 229.129,28.382 L 230.353,26.267 L 231.576,24.785 L 232.8,27.756 L 234.024,26.004 L 235.247,24.119 L 236.471,25.315 L 237.694,25.314 L 238.918,24.01 L 240.141,23.364 L 241.365,20.725 L 242.588,25.689 L 243.812,24.72 L 245.035,25.497 L 246.259,25.233 L 247.482,24.031 L 248.706,22.856 L 249.929,23.86 L 251.153,23.865 L 252.376,21.476 L 253.6,21.943 L 254.824,22.243 L 256.047,21.945 L 257.271,22.451 L 258.494,17.466 L 259.718,19.438 L 260.941,21.212 L 262.165,22.359 L 263.388,20.74 L 264.612,19.631 L 265.835,13.465 L 267.059,19.653 L 268.282,16.867 L 269.506,16.243 L 270.729,17.238 L 271.953,12.8 L 273.176,17.274 L 274.4,16.214 L 275.624,17.173 L 276.847,18.597 L 278.071,17.206 L 279.294,13.914 L 280.518,10.461 L 281.741,11.257 L 282.965,7.484 L 284.188,12.28 L 285.412,12.014 L 286.635,14.53 L 287.859,17.311 L 289.082,14.028 L 290.306,15.614 L 291.529,13.834 L 292.753,17.659 L 293.976,13.907 L 295.2,14.929 L 296.424,16.049 L 297.647,15.464 L 298.871,9.701 L 300.094,14.291 L 301.318,17.576 L 302.541,7.752 L 303.765,14.722 L 304.988,12.92 L 306.212,14.907 L 307.435,10.503 L 308.659,15 L 309.882,12.27 L 311.106,16.564 L 312.329,13.407 L 313.553,13.174 L 314.776,9.622 L 316,9.817 L 316,61.289 L 314.776,66.399 L 313.553,59.536 L 312.329,67.408 L 311.106,60.037 L 309.882,69.28 L 308.659,65.208 L 307.435,61.102 L 306.212,63.339 L 304.988,59.426 L 303.765,63.3 L 302.541,65.799 L 301.318,66.163 L 300.094,65.335 L 298.871,62.716 L 297.647,64.786 L 296.424,66.652 L 295.2,64.701 L 293.976,66.75 L 292.753,64.571 L 291.529,64.082 L 290.306,60.358 L 289.082,65.134 L 287.859,64.565 L 286.635,58.301 L 285.412,64.316 L 284.188,62.767 L 282.965,63.554 L 281.741,58.773 L 280.518,65.339 L 279.294,65.466 L 278.071,66.158 L 276.847,60.234 L 275.624,60.635 L 274.4,62.322 L 273.176,60.177 L 271.953,60.547 L 270.729,57.038 L 269.506,58.463 L 268.282,58.946 L 267.059,60.493 L 265.835,61.94 L 264.612,57.441 L 263.388,55.879 L 262.165,55.738 L 260.941,55.268 L 259.718,54.888 L 258.494,52.396 L 257.271,51.43 L 256.047,62.954 L 254.824,54.21 L 253.6,52.262 L 252.376,52.119 L 251.153,52.781 L 249.929,53.313 L 248.706,53.813 L 247.482,51.109 L 246.259,50.527 L 245.035,53.65 L 243.812,50.28 L 242.588,52.982 L 241.365,54.822 L 240.141,53.868 L 238.918,50.367 L 237.694,48.797 L 236.471,47.904 L 235.247,49.754 L 234.024,49.692 L 232.8,49.952 L 231.576,48.816 L 230.353,49.812 L 229.129,51.341 L 227.906,48.538 L 226.682,48.85 L 225.459,51.59 L 224.235,47.943 L 223.012,48.993 L 221.788,49.938 L 220.565,47.411 L 219.341,50.962 L 218.118,48.715 L 216.894,48.206 L 215.671,48.807 L 214.447,48.703 L 213.224,47.273 L 212,46.068 L 210.776,48.372 L 209.553,46.328 L 208.329,46.493 L 207.106,46.981 L 205.882,46.369 L 204.659,49.888 L 203.435,46.511 L 202.212,47.818 L 200.988,48.166 L 199.765,47.249 L 198.541,45.53 L 197.318,45.706 L 196.094,46.055 L 194.871,47.517 L 193.647,46.847 L 192.424,45.605 L 191.2,45.972 L 189.976,45.138 L 188.753,46.458 L 187.529,45.215 L 186.306,46.523 L 185.082,45.004 L 183.859,46.036 L 182.635,44.755 L 181.412,45.054 L 180.188,44.372 L 178.965,45.936 L 177.741,44.506 L 176.518,44.91 L 175.294,45.739 L 174.071,45.096 L 172.847,45.693 L 171.624,44.813 L 170.4,44.402 L 169.176,44.824 L 167.953,45.639 L 166.729,44.043 L 165.506,43.239 L 164.282,44.401 L 163.059,47.609 L 161.835,44.384 L 160.612,43.182 L 159.388,45.185 L 158.165,43.969 L 156.941,44.029 L 155.718,44.187 L 154.494,44.747 L 153.271,44.168 L 152.047,45.562 L 150.824,44.261 L 149.6,44.031 L 148.376,44.077 L 147.153,44.25 L 145.929,43.878 L 144.706,45.994 L 143.482,42.833 L 142.259,43.907 L 141.035,43.598 L 139.812,44.069 L 138.588,43.302 L 137.365,43.303 L 136.141,43.667 L 134.918,43.416 L 133.694,43.197 L 132.471,43.41 L 131.247,43.362 L 130.024,43.069 L 128.8,44.641 L 127.576,44.293 L 126.353,42.951 L 125.129,44.004 L 123.906,43.856 L 122.682,42.445 L 121.459,43.441 L 120.235,42.813 L 119.012,43.495 L 117.788,43.856 L 116.565,41.947 L 115.341,43.477 L 114.118,43.042 L 112.894,42.108 L 111.671,43.187 L 110.447,42.672 L 109.224,42.629 L 108,42.467 L 106.776,42.286 L 105.553,42.355 L 104.329,42.75 L 103.106,43.479 L 101.882,42.532 L 100.659,42.746 L 99.435,41.909 L 98.212,43.183 L 96.988,42.196 L 95.765,41.86 L 94.541,42.36 L 93.318,42.449 L 92.094,43.606 L 90.871,41.65 L 89.647,42.175 L 88.424,41.957 L 87.2,43.209 L 85.976,41.726 L 84.753,41.782 L 83.529,43.051 L 82.306,41.633 L 81.082,42.28 L 79.859,42.069 L 78.635,42.642 L 77.412,42.636 L 76.188,43.133 L 74.965,42.026 L 73.741,41.837 L 72.518,41.717 L 71.294,42.794 L 70.071,41.966 L 68.847,41.224 L 67.624,42.031 L 66.4,42.48 L 65.176,41.632 L 63.953,41.642 L 62.729,44.256 L 61.506,42.291 L 60.282,42.01 L 59.059,42.124 L 57.835,41.729 L 56.612,41.73 L 55.388,41.744 L 54.165,42.178 L 52.941,41.858 L 51.718,42.589 L 50.494,41.951 L 49.271,41.967 L 48.047,41.562 L 46.824,42.156 L 45.6,42.604 L 44.376,41.756 L 43.153,41.72 L 41.929,41.885 L 40.706,41.899 L 39.482,41.448 L 38.259,41.499 L 37.035,41.37 L 35.812,41.597 L 34.588,41.892 L 33.365,42.592 L 32.141,42.197 L 30.918,41.566 L 29.694,42.421 L 28.471,41.489 L 27.247,42.434 L 26.024,41.141 L 24.8,40.999 L 23.576,41.101 L 22.353,41.281 L 21.129,41.052 L 19.906,42.659 L 18.682,41.901 L 17.459,41.371 L 16.235,41.396 L 15.012,41.346 L 13.788,41.038 L 12.565,41.719 L 11.341,41.315 L 10.118,42.324 L 8.894,43.203 L 7.671,40.549 L 6.447,42.293 L 5.224,41.462 L 4,41.46 Z" fill="url(#continuous-widget-wave-fill)" stroke="var(--pps-svg-cyan, #2a8f84)" stroke-width="0.35" opacity="0.92" data-layer="waveform" data-channel="generated-source" data-sample-reduction="min-max-bin" />
    <path d="M 4,33.726 L 7.284,33.726 L 10.568,33.726 L 13.853,33.726 L 17.137,33.726 L 20.421,33.726 L 23.705,33.726 L 26.989,33.726 L 30.274,33.697 L 33.558,33.647 L 36.842,33.596 L 40.126,33.544 L 43.411,33.491 L 46.695,33.437 L 49.979,33.381 L 53.263,33.324 L 56.547,33.265 L 59.832,33.205 L 63.116,33.143 L 66.4,33.08 L 69.684,33.015 L 72.968,32.949 L 76.253,32.88 L 79.537,32.81 L 82.821,32.737 L 86.105,32.663 L 89.389,32.587 L 92.674,32.508 L 95.958,32.427 L 99.242,32.343 L 102.526,32.257 L 105.811,32.169 L 109.095,32.077 L 112.379,31.983 L 115.663,31.886 L 118.947,31.785 L 122.232,31.681 L 125.516,31.574 L 128.8,31.462 L 132.084,31.347 L 135.368,31.228 L 138.653,31.104 L 141.937,30.976 L 145.221,30.843 L 148.505,30.705 L 151.789,30.561 L 155.074,30.412 L 158.358,30.256 L 161.642,30.094 L 164.926,29.925 L 168.211,29.749 L 171.495,29.565 L 174.779,29.372 L 178.063,29.17 L 181.347,28.959 L 184.632,28.737 L 187.916,28.504 L 191.2,28.259 L 194.484,28.002 L 197.768,27.73 L 201.053,27.443 L 204.337,27.139 L 207.621,26.818 L 210.905,26.477 L 214.189,26.114 L 217.474,25.728 L 220.758,25.316 L 224.042,24.875 L 227.326,24.403 L 230.611,23.895 L 233.895,23.348 L 237.179,22.757 L 240.463,22.116 L 243.747,21.419 L 247.032,20.658 L 250.316,19.823 L 253.6,18.904 L 256.884,17.887 L 260.168,16.756 L 263.453,15.491 L 266.737,14.064 L 270.021,12.445 L 273.305,10.591 L 276.589,8.447 L 279.874,8.08 L 283.158,8.08 L 286.442,8.08 L 289.726,8.08 L 293.011,8.08 L 296.295,8.08 L 299.579,8.08 L 302.863,8.08 L 306.147,8.08 L 309.432,8.08 L 312.716,8.08 L 316,8.08" fill="none" stroke="var(--pps-svg-accent, #d8892f)" stroke-width="1.15" stroke-linecap="round" stroke-dasharray="none" opacity="0.88" data-layer="approach-envelope" />
    <path d="M 4,42.274 L 7.284,42.274 L 10.568,42.274 L 13.853,42.274 L 17.137,42.274 L 20.421,42.274 L 23.705,42.274 L 26.989,42.274 L 30.274,42.303 L 33.558,42.353 L 36.842,42.404 L 40.126,42.456 L 43.411,42.509 L 46.695,42.563 L 49.979,42.619 L 53.263,42.676 L 56.547,42.735 L 59.832,42.795 L 63.116,42.857 L 66.4,42.92 L 69.684,42.985 L 72.968,43.051 L 76.253,43.12 L 79.537,43.19 L 82.821,43.263 L 86.105,43.337 L 89.389,43.413 L 92.674,43.492 L 95.958,43.573 L 99.242,43.657 L 102.526,43.743 L 105.811,43.831 L 109.095,43.923 L 112.379,44.017 L 115.663,44.114 L 118.947,44.215 L 122.232,44.319 L 125.516,44.426 L 128.8,44.538 L 132.084,44.653 L 135.368,44.772 L 138.653,44.896 L 141.937,45.024 L 145.221,45.157 L 148.505,45.295 L 151.789,45.439 L 155.074,45.588 L 158.358,45.744 L 161.642,45.906 L 164.926,46.075 L 168.211,46.251 L 171.495,46.435 L 174.779,46.628 L 178.063,46.83 L 181.347,47.041 L 184.632,47.263 L 187.916,47.496 L 191.2,47.741 L 194.484,47.998 L 197.768,48.27 L 201.053,48.557 L 204.337,48.861 L 207.621,49.182 L 210.905,49.523 L 214.189,49.886 L 217.474,50.272 L 220.758,50.684 L 224.042,51.125 L 227.326,51.597 L 230.611,52.105 L 233.895,52.652 L 237.179,53.243 L 240.463,53.884 L 243.747,54.581 L 247.032,55.342 L 250.316,56.177 L 253.6,57.096 L 256.884,58.113 L 260.168,59.244 L 263.453,60.509 L 266.737,61.936 L 270.021,63.555 L 273.305,65.409 L 276.589,67.553 L 279.874,67.92 L 283.158,67.92 L 286.442,67.92 L 289.726,67.92 L 293.011,67.92 L 296.295,67.92 L 299.579,67.92 L 302.863,67.92 L 306.147,67.92 L 309.432,67.92 L 312.716,67.92 L 316,67.92" fill="none" stroke="var(--pps-svg-orange, #b75b2f)" stroke-width="0.85" stroke-linecap="round" stroke-dasharray="none" opacity="0.88" data-layer="approach-envelope" />
  </g>
  <rect x="223" y="9" width="88" height="15" rx="3" fill="var(--pps-svg-chip-surface, #eef7f3)" stroke="var(--pps-svg-chip-line, #b8d9cf)" data-layer="parameter-chip" />
  <text x="267" y="19" fill="var(--pps-svg-primary-hover, #1d5846)" font-size="7.2" font-family="Cascadia Mono, SFMono-Regular, Consolas, monospace" letter-spacing="0" font-weight="700" text-anchor="middle" data-layer="parameter-chip-label">CONTINUOUS / 1/R</text>
  <text x="6" y="89" fill="var(--pps-svg-muted, #68746c)" font-size="8.2" font-family="Aptos, Noto Sans, Helvetica Neue, sans-serif" letter-spacing="0" font-weight="700">far / quiet</text>
  <text x="314" y="89" fill="var(--pps-svg-muted, #68746c)" font-size="8.2" font-family="Aptos, Noto Sans, Helvetica Neue, sans-serif" letter-spacing="0" font-weight="700" text-anchor="end">near / loud</text>
  <line x1="61" y1="86" x2="253" y2="86" stroke="var(--pps-svg-line-strong, #b8c5bb)" stroke-width="1" data-layer="direction-axis" />
  <path d="M 248,82 L 254,86 L 248,90" fill="none" stroke="var(--pps-svg-line-strong, #b8c5bb)" stroke-width="1" stroke-linecap="round" stroke-linejoin="round" data-layer="direction-arrow" />
</svg>
